HIERARCHY
ROOT Hips
{
  OFFSET 5.84602e-005 68.8428 3.50346
  CHANNELS 6 Xposition Yposition Zposition Zrotation Xrotation Yrotation
  JOINT Spine
  {
    OFFSET 0 8.597 -4.6522
    CHANNELS 3 Zrotation Xrotation Yrotation
    JOINT Spine1
    {
      OFFSET 0 7.8454 0.4098
      CHANNELS 3 Zrotation Xrotation Yrotation
      JOINT Spine2
      {
        OFFSET 0 9.7078 -2.1609
        CHANNELS 3 Zrotation Xrotation Yrotation
        JOINT Neck
        {
          OFFSET 0 21.8761 -0.4549
          CHANNELS 3 Zrotation Xrotation Yrotation
          JOINT Head
          {
            OFFSET 0 12.3537 3.3602
            CHANNELS 3 Zrotation Xrotation Yrotation
            End Site
            {
              OFFSET 0.0001 18.9506 0.5657
            }
          }
        }
        JOINT LeftShoulder
        {
          OFFSET 2.2086 21.1115 7.2329
          CHANNELS 3 Zrotation Xrotation Yrotation
          JOINT LeftArm
          {
            OFFSET 13.1193 3.0282 -4.8998
            CHANNELS 3 Zrotation Xrotation Yrotation
            JOINT LeftForeArm
            {
              OFFSET 27.4081 -0.0973053 -0.2375
              CHANNELS 3 Zrotation Xrotation Yrotation
              JOINT LeftHand
              {
                OFFSET 22.8641 0.0662994 -0.1369
                CHANNELS 3 Zrotation Xrotation Yrotation
                JOINT LeftHandIndex1
                {
                  OFFSET 8.8614 0.775009 2.4612
                  CHANNELS 3 Zrotation Xrotation Yrotation
                  JOINT LeftHandIndex2
                  {
                    OFFSET 3.3146 -0.808304 0.5841
                    CHANNELS 3 Zrotation Xrotation Yrotation
                    JOINT LeftHandIndex3
                    {
                      OFFSET 2.2628 -0.552002 0.3989
                      CHANNELS 3 Zrotation Xrotation Yrotation
                      End Site
                      {
                        OFFSET 1.6102 -0.4807 0.2612
                      }
                    }
                  }
                }
                JOINT LeftHandMiddle1
                {
                  OFFSET 8.9937 0.895004 0.2143
                  CHANNELS 3 Zrotation Xrotation Yrotation
                  JOINT LeftHandMiddle2
                  {
                    OFFSET 4.0984 0.0113983 -0.0242
                    CHANNELS 3 Zrotation Xrotation Yrotation
                    JOINT LeftHandMiddle3
                    {
                      OFFSET 2.2716 0.00689697 -0.0138001
                      CHANNELS 3 Zrotation Xrotation Yrotation
                      End Site
                      {
                        OFFSET 2.0404 -0.1441 0.0027
                      }
                    }
                  }
                }
                JOINT LeftHandRing1
                {
                  OFFSET 8.5234 0.597198 -2.0164
                  CHANNELS 3 Zrotation Xrotation Yrotation
                  JOINT LeftHandRing2
                  {
                    OFFSET 3.7188 -0.188293 -0.2328
                    CHANNELS 3 Zrotation Xrotation Yrotation
                    JOINT LeftHandRing3
                    {
                      OFFSET 2.1191 -0.106598 -0.1332
                      CHANNELS 3 Zrotation Xrotation Yrotation
                      End Site
                      {
                        OFFSET 1.8737 -0.2304 -0.0886
                      }
                    }
                  }
                }
                JOINT LeftHandPinky1
                {
                  OFFSET 7.9094 -0.601089 -3.4825
                  CHANNELS 3 Zrotation Xrotation Yrotation
                  JOINT LeftHandPinky2
                  {
                    OFFSET 2.2874 -0.477005 -0.6314
                    CHANNELS 3 Zrotation Xrotation Yrotation
                    JOINT LeftHandPinky3
                    {
                      OFFSET 1.6774 -0.349396 -0.4633
                      CHANNELS 3 Zrotation Xrotation Yrotation
                      End Site
                      {
                        OFFSET 1.4888 -0.4091 -0.3416
                      }
                    }
                  }
                }
                JOINT LeftHandThumb1
                {
                  OFFSET 1.833 -1.3875 1.3896
                  CHANNELS 3 Zrotation Xrotation Yrotation
                  JOINT LeftHandThumb2
                  {
                    OFFSET 3.4129 -1.121 2.5732
                    CHANNELS 3 Zrotation Xrotation Yrotation
                    JOINT LeftHandThumb3
                    {
                      OFFSET 2.2474 -0.804199 1.6192
                      CHANNELS 3 Zrotation Xrotation Yrotation
                      End Site
                      {
                        OFFSET 1.6527 -0.5689 1.1317
                      }
                    }
                  }
                }
              }
            }
          }
        }
        JOINT RightShoulder
        {
          OFFSET -2.2086 21.1115 7.2329
          CHANNELS 3 Zrotation Xrotation Yrotation
          JOINT RightArm
          {
            OFFSET -13.1216 3.0287 -4.9007
            CHANNELS 3 Zrotation Xrotation Yrotation
            JOINT RightForeArm
            {
              OFFSET -27.4081 -0.0973053 -0.2375
              CHANNELS 3 Zrotation Xrotation Yrotation
              JOINT RightHand
              {
                OFFSET -22.8641 0.0664063 -0.1369
                CHANNELS 3 Zrotation Xrotation Yrotation
                JOINT RightHandIndex1
                {
                  OFFSET -8.8614 0.774994 2.4612
                  CHANNELS 3 Zrotation Xrotation Yrotation
                  JOINT RightHandIndex2
                  {
                    OFFSET -3.3146 -0.808304 0.5841
                    CHANNELS 3 Zrotation Xrotation Yrotation
                    JOINT RightHandIndex3
                    {
                      OFFSET -2.2628 -0.552002 0.3989
                      CHANNELS 3 Zrotation Xrotation Yrotation
                      End Site
                      {
                        OFFSET -1.6102 -0.4807 0.2612
                      }
                    }
                  }
                }
                JOINT RightHandMiddle1
                {
                  OFFSET -8.9937 0.894989 0.2143
                  CHANNELS 3 Zrotation Xrotation Yrotation
                  JOINT RightHandMiddle2
                  {
                    OFFSET -4.0984 0.0113983 -0.0242
                    CHANNELS 3 Zrotation Xrotation Yrotation
                    JOINT RightHandMiddle3
                    {
                      OFFSET -2.2716 0.00691223 -0.0138001
                      CHANNELS 3 Zrotation Xrotation Yrotation
                      End Site
                      {
                        OFFSET -2.0404 -0.1441 0.0027
                      }
                    }
                  }
                }
                JOINT RightHandRing1
                {
                  OFFSET -8.5234 0.597198 -2.0164
                  CHANNELS 3 Zrotation Xrotation Yrotation
                  JOINT RightHandRing2
                  {
                    OFFSET -3.7188 -0.188309 -0.2328
                    CHANNELS 3 Zrotation Xrotation Yrotation
                    JOINT RightHandRing3
                    {
                      OFFSET -2.1191 -0.106598 -0.1332
                      CHANNELS 3 Zrotation Xrotation Yrotation
                      End Site
                      {
                        OFFSET -1.8737 -0.2304 -0.0886
                      }
                    }
                  }
                }
                JOINT RightHandPinky1
                {
                  OFFSET -7.9094 -0.601105 -3.4825
                  CHANNELS 3 Zrotation Xrotation Yrotation
                  JOINT RightHandPinky2
                  {
                    OFFSET -2.2874 -0.477005 -0.6314
                    CHANNELS 3 Zrotation Xrotation Yrotation
                    JOINT RightHandPinky3
                    {
                      OFFSET -1.6774 -0.349396 -0.4633
                      CHANNELS 3 Zrotation Xrotation Yrotation
                      End Site
                      {
                        OFFSET -1.4888 -0.4091 -0.3416
                      }
                    }
                  }
                }
                JOINT RightHandThumb1
                {
                  OFFSET -1.833 -1.38751 1.3896
                  CHANNELS 3 Zrotation Xrotation Yrotation
                  JOINT RightHandThumb2
                  {
                    OFFSET -3.41299 -1.12099 2.5732
                    CHANNELS 3 Zrotation Xrotation Yrotation
                    JOINT RightHandThumb3
                    {
                      OFFSET -2.24741 -0.804108 1.6192
                      CHANNELS 3 Zrotation Xrotation Yrotation
                      End Site
                      {
                        OFFSET -1.6527 -0.5689 1.1317
                      }
                    }
                  }
                }
              }
            }
          }
        }
      }
    }
  }
  JOINT RightUpLeg
  {
    OFFSET -9.1966 3.8861 -0.7581
    CHANNELS 3 Zrotation Xrotation Yrotation
    JOINT RightLeg
    {
      OFFSET -0.7359 -41.0265 0
      CHANNELS 3 Zrotation Xrotation Yrotation
      JOINT RightFoot
      {
        OFFSET 0 -40.2855 0
        CHANNELS 3 Zrotation Xrotation Yrotation
        JOINT RightToeBase
        {
          OFFSET 0 -5.6122 11.7359
          CHANNELS 3 Zrotation Xrotation Yrotation
          End Site
          {
            OFFSET 0 0 7.8731
          }
        }
      }
    }
  }
  JOINT LeftUpLeg
  {
    OFFSET 9.1965 3.8864 -0.7581
    CHANNELS 3 Zrotation Xrotation Yrotation
    JOINT LeftLeg
    {
      OFFSET 0.7359 -41.0268 0
      CHANNELS 3 Zrotation Xrotation Yrotation
      JOINT LeftFoot
      {
        OFFSET 0 -40.2855 0
        CHANNELS 3 Zrotation Xrotation Yrotation
        JOINT LeftToeBase
        {
          OFFSET 0 -5.6122 11.7359
          CHANNELS 3 Zrotation Xrotation Yrotation
          End Site
          {
            OFFSET 0 0 7.8731
          }
        }
      }
    }
  }
}
MOTION
Frames:	4
Frame Time:	0.0333333
5.84602e-005 68.8428 3.50346 0 0 -0 0 0 -0 0 0 -0 0 0 -0 0 0 -0 0 0 -0 0 0 -0 0 0 -0 0 0 -0 0 0 -0 0 0 -0 0 0 -0 0 0 -0 0 0 -0 -0.0146107 -8.87603e-005 -2.63497e-007 2.99804e-018 -2.42657e-020 -1.42182e-022 0 0 -0 -0.0187562 -0.001176 5.858e-005 5.06224e-018 3.88251e-019 1.21329e-020 0 0 -0 -0.012269 -0.00324817 0.000675346 -1.74678e-018 3.88251e-019 -0 0 0 -0 0 0 -0 0 0 -0 0 0 -0 0 0 -0 0 0 -0 0 0 -0 0 0 -0 0 0 -0 0 0 -0 0 0 -0 0.0149955 -9.10982e-005 2.64101e-007 -9.69331e-018 1.21329e-020 -4.7394e-023 0 0 -0 0.0189956 -0.00119102 -5.96516e-005 -5.41541e-019 0 2.42657e-020 0 0 -0 0.0122698 -0.00324857 -0.000673756 -2.00796e-019 0 -1.94126e-019 0 0 -0 0 0 -0 0 0 -0 3.39842 1.33031 -0.0637918 -5.65207e-008 0.834868 -0.000436188 -3.39935 -2.16518 -0.0642563 -8.89002e-024 -1.18485e-023 -1.48106e-024 -3.39844 1.35642 0.0640283 -3.18788e-007 0.782166 -0.000588827 3.39931 -2.13858 0.0634662 1.1399e-023 0 -0 
18.9409 26.0053 1.75447 -59.2236 -38.8909 110.36 -0.223527 2.72678 -0.1183 -0.442227 5.45429 -0.226329 -0.442218 5.45429 -0.226333 0.000195234 -25.2195 1.41303e-005 -0.0451406 -29.2413 -0.0299433 -8.19861 4.53129 -1.45363 -52.0968 -16.9781 -45.1372 32.0595 -9.69056 -95.7711 -1.31259 8.0328 -5.55876 -4.96468e-007 2.35966e-007 -1.55948e-006 -2.75138e-008 1.04292e-006 -1.82488e-006 -9.65422e-007 -5.70992e-007 -1.29409e-006 -4.96468e-007 2.35966e-007 -1.55948e-006 -0.0145838 -8.66643e-005 -2.98251e-006 -9.6733e-007 -5.70839e-007 -1.29416e-006 -4.96468e-007 2.35966e-007 -1.55948e-006 -0.0187363 -0.00116914 5.8851e-005 -4.96553e-007 2.36217e-007 -1.55944e-006 -4.96468e-007 2.35966e-007 -1.55948e-006 -0.0122481 -0.00323673 0.000676722 -9.67063e-007 -5.71272e-007 -1.29403e-006 -4.96468e-007 2.35966e-007 -1.55948e-006 -2.75138e-008 1.04292e-006 -1.82488e-006 -9.65422e-007 -5.70992e-007 -1.29409e-006 8.03673 4.54185 1.71108 52.276 -16.554 45.1434 -32.154 -9.72985 95.8393 1.30074 8.3411 5.44182 -1.72147e-006 -3.1831e-007 -8.16047e-008 1.16375e-006 2.13558e-006 -7.63446e-007 9.4564e-007 -1.10541e-006 5.90569e-007 -1.72147e-006 -3.1831e-007 -8.16047e-008 0.0150011 -8.72499e-005 2.35549e-007 9.47682e-007 -1.10535e-006 5.90713e-007 -1.72147e-006 -3.1831e-007 -8.16047e-008 0.0190603 -0.00119369 -5.55676e-005 9.48241e-007 -1.10548e-006 5.90735e-007 -1.72147e-006 -3.1831e-007 -8.16047e-008 0.012278 -0.00324899 -0.000673598 -3.87914e-007 -7.11834e-007 2.5457e-007 -1.72147e-006 -3.1831e-007 -8.16047e-008 1.16375e-006 2.13558e-006 -7.63446e-007 9.4564e-007 -1.10541e-006 5.90569e-007 -20.6002 -21.5276 -30.4948 -95.1738 75.2932 106.359 -6.42587 11.0696 -2.75121 -2.69554e-006 2.28863e-006 -1.66498e-006 20.6118 -21.5255 30.4796 95.1312 75.3357 -106.306 6.43807 11.0899 2.73708 -3.0543e-007 -6.33415e-007 -3.12626e-006 
33.5764 9.38896 4.91598 117.657 -75.3715 -63.3827 -0.353206 3.95382 -0.157701 -0.697978 7.90848 -0.291954 -0.697979 7.90849 -0.291955 -8.75788e-006 -36.4264 -4.68685e-006 -0.0782886 -41.9141 -0.0504541 -11.8596 6.65107 -2.19008 -82.5181 -15.2519 -66.0945 44.144 -56.6503 -95.6594 -1.31788 11.6148 -8.27049 5.9048e-008 3.68997e-008 8.06084e-008 6.56487e-008 2.97728e-008 -4.18493e-008 9.93923e-017 2.98177e-016 -3.18055e-015 5.9048e-008 3.68997e-008 8.06084e-008 -0.0146061 -8.88125e-005 5.32992e-008 6.09951e-008 3.69012e-008 8.0613e-008 5.9048e-008 3.68997e-008 8.06084e-008 -0.0187565 -0.0011757 5.8666e-005 2.98177e-016 5.96354e-016 -6.36111e-015 5.9048e-008 3.68997e-008 8.06084e-008 -0.0122863 -0.00325243 0.000679709 -1.49089e-016 -3.47873e-016 3.18055e-015 5.9048e-008 3.68997e-008 8.06084e-008 6.56487e-008 2.97728e-008 -4.18493e-008 9.93923e-017 2.98177e-016 -3.18055e-015 11.6065 6.66821 2.57729 82.6024 -14.8365 66.0581 -44.0502 -56.7204 96.099 1.29117 12.0685 8.10339 9.93923e-017 5.09386e-016 -0 3.55704e-008 3.97667e-008 -7.9531e-010 -0 -7.20594e-016 -0 9.93923e-017 5.09386e-016 -0 0.0149952 -9.10008e-005 2.15324e-006 -9.93923e-017 -2.73329e-016 2.38542e-015 9.93923e-017 5.09386e-016 -0 0.0190026 -0.00119148 -5.95527e-005 -1.98785e-016 -9.19379e-016 -0 9.93923e-017 5.09386e-016 -0 0.0123006 -0.00325635 -0.000672994 3.1725e-032 -1.14301e-015 1.59028e-015 9.93923e-017 5.09386e-016 -0 3.55704e-008 3.97667e-008 -7.9531e-010 -0 -7.20594e-016 -0 -38.5043 -27.731 -47.3381 -144.108 40.7075 151.204 -6.93537 17.8925 -4.82774 1.59882e-006 -1.01515e-006 2.17196e-006 38.52 -27.7456 47.3192 144.157 40.7454 -151.26 6.95227 17.9216 4.81053 -3.57555e-007 1.91861e-008 -3.15433e-007 
29.7935 12.9728 4.73372 -90.4034 -89.7353 89.3393 -0.323175 3.68116 -0.150207 -0.638635 7.36309 -0.280426 -0.638635 7.36312 -0.280426 -2.39602e-005 -33.619 -7.18971e-006 -0.0688772 -38.0181 -0.0434783 -11.1567 6.36496 -2.19214 -75.7045 -16.2951 -61.6235 39.6591 -45.8511 -100.103 -1.1999 10.8871 -7.93158 8.71194e-007 -1.16945e-006 4.12009e-006 -8.37546e-007 -6.07722e-007 5.44773e-006 8.71194e-007 -1.16945e-006 4.12009e-006 8.71194e-007 -1.16945e-006 4.12009e-006 -0.0146223 -8.81917e-005 -3.5637e-006 8.71895e-007 -1.16997e-006 4.11994e-006 8.71194e-007 -1.16945e-006 4.12009e-006 -0.0187741 -0.00117772 6.32012e-005 8.72131e-007 -1.17007e-006 4.11989e-006 8.71194e-007 -1.16945e-006 4.12009e-006 -0.0122836 -0.00325144 0.000684401 8.7189e-007 -1.16974e-006 4.11991e-006 8.71194e-007 -1.16945e-006 4.12009e-006 -8.37546e-007 -6.07722e-007 5.44773e-006 8.71194e-007 -1.16945e-006 4.12009e-006 10.9143 6.38686 2.57838 75.8101 -15.8643 61.5891 -39.6678 -45.8949 100.396 1.1771 11.3226 7.76936 -2.71985e-007 -3.25646e-007 4.34682e-008 -2.38127e-007 -1.66517e-006 -3.4269e-006 -2.57652e-007 -8.08284e-007 -6.07652e-006 -2.71985e-007 -3.25646e-007 4.34682e-008 0.0149771 -9.1287e-005 2.00766e-006 -2.71987e-007 -3.25641e-007 4.3511e-008 -2.71985e-007 -3.25646e-007 4.34682e-008 0.0190104 -0.00119227 -4.783e-005 -2.71987e-007 -3.25639e-007 4.35251e-008 -2.71985e-007 -3.25646e-007 4.34682e-008 0.0122955 -0.00325666 -0.000670191 -2.71984e-007 -3.25643e-007 4.3511e-008 -2.71985e-007 -3.25646e-007 4.34682e-008 -2.38127e-007 -1.66517e-006 -3.4269e-006 -2.57652e-007 -8.08284e-007 -6.07652e-006 -34.1829 -26.6366 -43.4893 -140.156 49.1297 148.966 -6.87611 16.3581 -4.38586 1.98785e-015 0 -0 34.1975 -26.6486 43.4716 140.208 49.1678 -149.018 6.89243 16.3862 4.36934 1.00284e-006 -3.40535e-007 1.82576e-006 
